<?xml version="1.0" encoding="UTF-8"?>
<svg xmlns="http://www.w3.org/2000/svg" width="128" height="128" viewBox="0 0 128 128" role="img" aria-label="Eletrons Vision Icon">
  <title>Eletrons Vision Icon</title>
  <desc>Favicon do Eletrons Vision com sol estilizado em laranja</desc>
  <g fill="#F97316">
    <rect x="62" y="8" width="4" height="24" rx="2" transform="rotate(0 64 64)"/>
    <rect x="62" y="8" width="4" height="24" rx="2" transform="rotate(30 64 64)"/>
    <rect x="62" y="8" width="4" height="24" rx="2" transform="rotate(60 64 64)"/>
    <rect x="62" y="8" width="4" height="24" rx="2" transform="rotate(90 64 64)"/>
    <rect x="62" y="8" width="4" height="24" rx="2" transform="rotate(120 64 64)"/>
    <rect x="62" y="8" width="4" height="24" rx="2" transform="rotate(150 64 64)"/>
    <rect x="62" y="8" width="4" height="24" rx="2" transform="rotate(180 64 64)"/>
    <rect x="62" y="8" width="4" height="24" rx="2" transform="rotate(210 64 64)"/>
    <rect x="62" y="8" width="4" height="24" rx="2" transform="rotate(240 64 64)"/>
    <rect x="62" y="8" width="4" height="24" rx="2" transform="rotate(270 64 64)"/>
    <rect x="62" y="8" width="4" height="24" rx="2" transform="rotate(300 64 64)"/>
    <rect x="62" y="8" width="4" height="24" rx="2" transform="rotate(330 64 64)"/>
  </g>
  <circle cx="64" cy="64" r="16" fill="#111827"/>
</svg>