<svg width="428" height="187" viewBox="0 0 428 187" fill="none" xmlns="http://www.w3.org/2000/svg">
<path d="M165.8 119.073H163.248L181.007 81.9412H186.319L167.102 121H161.79L142.573 81.9412H147.885L165.8 119.073ZM205.187 81.9412H210.082V121H205.187V81.9412ZM230.465 108.345H235.413C235.656 110.185 236.385 111.799 237.6 113.188C238.815 114.577 240.412 115.653 242.391 116.417C244.405 117.146 246.714 117.511 249.318 117.511C253.241 117.511 256.348 116.851 258.64 115.532C260.966 114.178 262.129 112.355 262.129 110.064C262.129 108.293 261.4 106.939 259.942 106.001C258.518 105.064 256.019 104.387 252.442 103.97L244.891 103.033C240.135 102.477 236.715 101.349 234.632 99.6478C232.549 97.9119 231.507 95.5857 231.507 92.6693C231.507 90.3432 232.201 88.3295 233.59 86.6282C234.979 84.8923 236.923 83.573 239.423 82.6703C241.957 81.7329 244.908 81.2642 248.276 81.2642C251.644 81.2642 254.63 81.7849 257.234 82.8265C259.872 83.8334 261.955 85.2568 263.483 87.0969C265.045 88.9023 265.896 91.0375 266.035 93.5026H261.088C260.879 91.8361 260.22 90.4126 259.109 89.2322C257.998 88.017 256.505 87.0796 254.63 86.4199C252.79 85.7255 250.637 85.3784 248.172 85.3784C244.596 85.3784 241.732 86.0207 239.579 87.3053C237.461 88.5551 236.402 90.3084 236.402 92.5652C236.402 94.3011 237.097 95.6378 238.485 96.5752C239.909 97.4779 242.305 98.1376 245.672 98.5542L253.067 99.5437C256.505 99.9603 259.23 100.568 261.244 101.366C263.292 102.165 264.768 103.241 265.67 104.595C266.573 105.915 267.024 107.598 267.024 109.647C267.024 112.112 266.278 114.247 264.785 116.053C263.327 117.858 261.261 119.247 258.588 120.219C255.914 121.191 252.807 121.677 249.266 121.677C245.69 121.677 242.513 121.122 239.735 120.011C236.958 118.865 234.753 117.302 233.121 115.323C231.49 113.31 230.604 110.984 230.465 108.345ZM287.55 81.9412H292.446V121H287.55V81.9412ZM335.17 121.677C330.83 121.677 326.994 120.826 323.661 119.125C320.363 117.424 317.793 115.063 315.953 112.043C314.113 108.987 313.193 105.463 313.193 101.471C313.193 97.4432 314.113 93.9192 315.953 90.8987C317.793 87.8781 320.363 85.5172 323.661 83.816C326.994 82.1148 330.83 81.2642 335.17 81.2642C339.51 81.2642 343.329 82.1148 346.628 83.816C349.926 85.5172 352.495 87.8781 354.335 90.8987C356.175 93.9192 357.095 97.4432 357.095 101.471C357.095 105.463 356.175 108.987 354.335 112.043C352.495 115.063 349.926 117.424 346.628 119.125C343.329 120.826 339.51 121.677 335.17 121.677ZM335.17 117.25C338.607 117.25 341.593 116.608 344.128 115.323C346.662 114.004 348.624 112.164 350.013 109.803C351.401 107.442 352.096 104.665 352.096 101.471C352.096 98.2417 351.401 95.4468 350.013 93.086C348.624 90.7251 346.662 88.9023 344.128 87.6177C341.593 86.3331 338.607 85.6908 335.17 85.6908C331.733 85.6908 328.747 86.3331 326.213 87.6177C323.678 88.9023 321.699 90.7251 320.276 93.086C318.887 95.4468 318.193 98.2417 318.193 101.471C318.193 104.665 318.887 107.442 320.276 109.803C321.699 112.164 323.678 114.004 326.213 115.323C328.747 116.608 331.733 117.25 335.17 117.25ZM413.936 118.552L411.541 118.709V81.9412H416.28V121H409.979L380.242 84.2326L382.637 84.0764V121H377.898V81.9412H384.252L413.936 118.552Z" fill="black"/>
<path d="M49.4198 33.5543V42.1889H15.9298V33.5543H49.4198ZM23.8243 37.8716L20.7405 56.9911L15.8681 51.5019H51.3934V61H9.08379L12.661 37.8716L9.08379 14.7432H51.085V24.2412H15.8681L20.7405 18.7521L23.8243 37.8716ZM70.7046 14.7432V55.8192L65.4622 50.7001H100.124V61H59.0479V14.7432H70.7046ZM144.644 33.5543V42.1889H111.154V33.5543H144.644ZM119.048 37.8716L115.965 56.9911L111.092 51.5019H146.617V61H104.308L107.885 37.8716L104.308 14.7432H146.309V24.2412H111.092L115.965 18.7521L119.048 37.8716ZM168.287 19.8623H179.944V61H168.287V19.8623ZM150.277 14.7432H197.953V25.043H150.277V14.7432ZM211.62 35.0962H228.951C231.13 35.0962 232.857 34.6028 234.131 33.616C235.406 32.588 236.043 31.1695 236.043 29.3603C236.043 27.5512 235.406 26.1532 234.131 25.1664C232.857 24.1384 231.13 23.6245 228.951 23.6245H209.955L215.197 17.8886V61H203.54V14.7432H230.493C233.946 14.7432 236.969 15.3599 239.559 16.5934C242.149 17.827 244.164 19.5333 245.603 21.7125C247.042 23.8917 247.762 26.441 247.762 29.3603C247.762 32.2385 247.042 34.7672 245.603 36.9464C244.164 39.1257 242.149 40.832 239.559 42.0655C236.969 43.2579 233.946 43.8541 230.493 43.8541H211.62V35.0962ZM219.083 39.3518H232.22L249.242 61H235.735L219.083 39.3518ZM280.019 61.9868C274.591 61.9868 269.822 60.9794 265.71 58.9647C261.639 56.95 258.473 54.1334 256.212 50.5151C253.95 46.8968 252.82 42.6823 252.82 37.8716C252.82 33.0609 253.95 28.8464 256.212 25.228C258.473 21.6097 261.639 18.7932 265.71 16.7785C269.822 14.7637 274.591 13.7563 280.019 13.7563C285.446 13.7563 290.195 14.7637 294.266 16.7785C298.378 18.7932 301.564 21.6097 303.826 25.228C306.128 28.8464 307.279 33.0609 307.279 37.8716C307.279 42.6823 306.128 46.8968 303.826 50.5151C301.564 54.1334 298.378 56.95 294.266 58.9647C290.195 60.9794 285.446 61.9868 280.019 61.9868ZM280.019 51.5636C283.226 51.5636 285.981 51.0291 288.283 49.96C290.586 48.8499 292.354 47.2669 293.587 45.211C294.862 43.1551 295.499 40.7087 295.499 37.8716C295.499 35.0345 294.862 32.588 293.587 30.5322C292.354 28.4763 290.586 26.9138 288.283 25.8448C285.981 24.7346 283.226 24.1796 280.019 24.1796C276.853 24.1796 274.118 24.7346 271.816 25.8448C269.513 26.9138 267.725 28.4763 266.45 30.5322C265.175 32.588 264.538 35.0345 264.538 37.8716C264.538 40.7087 265.175 43.1551 266.45 45.211C267.725 47.2669 269.513 48.8499 271.816 49.96C274.118 51.0291 276.853 51.5636 280.019 51.5636ZM357.048 53.0438L353.286 53.7223V14.7432H364.572V61H349.894L321.708 22.0209L325.47 21.3425V61H314.183V14.7432H329.294L357.048 53.0438ZM371.35 45.8894H383.13C383.336 47.2874 383.973 48.5209 385.042 49.59C386.111 50.659 387.53 51.4814 389.298 52.057C391.107 52.6327 393.204 52.9205 395.589 52.9205C399.001 52.9205 401.674 52.4476 403.606 51.5019C405.58 50.5562 406.567 49.2199 406.567 47.493C406.567 46.1773 405.991 45.1699 404.84 44.4709C403.73 43.7308 401.633 43.1963 398.549 42.8673L389.606 41.9422C383.397 41.3254 378.895 39.8863 376.099 37.6249C373.344 35.3634 371.967 32.2796 371.967 28.3735C371.967 25.2897 372.871 22.6582 374.68 20.479C376.531 18.2998 379.101 16.6346 382.39 15.4833C385.72 14.332 389.606 13.7563 394.047 13.7563C398.446 13.7563 402.332 14.3937 405.703 15.6683C409.075 16.9429 411.768 18.711 413.783 20.9724C415.798 23.2339 416.887 25.8654 417.052 28.8669H405.272C405.107 27.6334 404.532 26.5849 403.545 25.7215C402.599 24.8169 401.304 24.1179 399.659 23.6245C398.056 23.09 396.103 22.8227 393.8 22.8227C390.716 22.8227 388.249 23.275 386.399 24.1796C384.59 25.043 383.685 26.2971 383.685 27.9418C383.685 29.1753 384.22 30.1415 385.289 30.8405C386.399 31.5395 388.352 32.0535 391.148 32.3824L400.584 33.4309C404.902 33.8832 408.355 34.6028 410.946 35.5896C413.536 36.5764 415.407 37.9333 416.558 39.6602C417.71 41.3871 418.285 43.5663 418.285 46.1978C418.285 49.3638 417.319 52.1392 415.387 54.524C413.495 56.8677 410.822 58.6974 407.369 60.0132C403.956 61.3289 399.968 61.9868 395.404 61.9868C390.675 61.9868 386.522 61.3084 382.945 59.9515C379.409 58.5946 376.613 56.7238 374.557 54.339C372.542 51.9131 371.473 49.0966 371.35 45.8894Z" fill="black"/>
<path d="M92.8335 71.7229L82.6715 69L74.1078 100.96L66.3764 72.1063L56.2141 74.8293L64.5675 106.004L43.7612 85.1976L36.3221 92.6368L59.1439 115.459L30.7229 107.843L28 118.005L59.0534 126.326C58.6979 124.793 58.5098 123.195 58.5098 121.553C58.5098 109.932 67.9303 100.512 79.551 100.512C91.1718 100.512 100.592 109.932 100.592 121.553C100.592 123.184 100.407 124.772 100.055 126.297L128.277 133.859L131 123.697L99.8231 115.343L128.246 107.727L125.523 97.5649L94.3473 105.918L115.153 85.1122L107.714 77.673L85.209 100.178L92.8335 71.7229Z" fill="#F97316"/>
<path d="M100.028 126.415C99.1565 130.099 97.3171 133.408 94.7932 136.059L115.239 156.504L122.678 149.065L100.028 126.415Z" fill="#F97316"/>
<path d="M94.5866 136.273C92.0323 138.881 88.8043 140.828 85.1845 141.832L92.6242 169.597L102.786 166.874L94.5866 136.273Z" fill="#F97316"/>
<path d="M84.8049 141.933C83.1255 142.365 81.3651 142.594 79.5511 142.594C77.6076 142.594 75.7255 142.331 73.9388 141.838L66.4924 169.628L76.6544 172.351L84.8049 141.933Z" fill="#F97316"/>
<path d="M73.5797 141.735C70.0151 140.682 66.8446 138.71 64.3424 136.094L43.8467 156.59L51.2859 164.029L73.5797 141.735Z" fill="#F97316"/>
<path d="M64.1714 135.913C61.7122 133.28 59.9208 130.015 59.0682 126.388L30.7542 133.975L33.4771 144.137L64.1714 135.913Z" fill="#F97316"/>
<circle cx="79" cy="122" r="10" fill="#F97316"/>
</svg>
